<svg t="1745159306154" class="icon" viewBox="0 0 1024 1024" version="1.1" xmlns="http://www.w3.org/2000/svg" p-id="1676" width="200" height="200"><path d="M208.979592 1024h606.040816c115.461224 0 208.979592-93.518367 208.979592-208.979592V208.979592C1024 93.518367 930.481633 0 815.020408 0H208.979592C93.518367 0 0 93.518367 0 208.979592v606.040816c0 115.461224 93.518367 208.979592 208.979592 208.979592z" fill="#C5D8DE" p-id="1677"></path><path d="M208.979592 982.204082h606.040816c92.36898 0 167.183673-74.814694 167.183674-167.183674V208.979592c0-92.36898-74.814694-167.183673-167.183674-167.183674H208.979592C116.610612 41.795918 41.795918 116.610612 41.795918 208.979592v606.040816c0 92.36898 74.814694 167.183673 167.183674 167.183674z" fill="#030000" p-id="1678"></path><path d="M208.979592 919.510204h606.040816c57.678367 0 104.489796-46.811429 104.489796-104.489796V208.979592c0-57.678367-46.811429-104.489796-104.489796-104.489796H208.979592c-57.678367 0-104.489796 46.811429-104.489796 104.489796v606.040816c0 57.678367 46.811429 104.489796 104.489796 104.489796z" fill="#1A201E" p-id="1679"></path><path d="M172.408163 912.927347c-3.552653-1.358367-7.105306-2.821224-10.448979-4.597551V867.265306h-43.467755a98.220408 98.220408 0 0 1-5.32898-10.448979h48.796735V752.326531H104.489796v-10.44898h57.469388V637.387755H104.489796v-10.448979h57.469388V522.44898H104.489796v-10.44898h57.469388V407.510204H104.489796v-10.44898h57.469388V292.571429H104.489796v-10.44898h57.469388V177.632653h-52.662857c1.149388-3.552653 2.403265-7.105306 3.866122-10.44898h48.796735v-51.513469c3.343673-1.671837 6.896327-3.239184 10.448979-4.597551V167.183673h104.489796v-57.469387h10.44898V167.183673h104.489796v-57.469387h10.448979V167.183673h104.489796v-57.469387h10.44898V167.183673h104.489796v-57.469387h10.448979V167.183673h104.489796v-57.469387h10.44898V167.183673h104.489796v-56.11102c3.552653 1.358367 7.105306 2.925714 10.448979 4.597551V167.183673h48.796735c1.462857 3.343673 2.716735 6.896327 3.866122 10.44898H862.040816v104.489796H919.510204v10.44898h-57.469388v104.489795H919.510204v10.44898h-57.469388v104.489796H919.510204v10.44898h-57.469388v104.489796H919.510204v10.448979h-57.469388v104.489796H919.510204v10.44898h-57.469388v104.489796h48.796735a98.220408 98.220408 0 0 1-5.32898 10.448979H862.040816v41.06449c-3.343673 1.776327-6.896327 3.239184-10.448979 4.597551V867.265306h-104.489796v52.244898h-10.44898v-52.244898h-104.489796v52.244898h-10.448979v-52.244898h-104.489796v52.244898h-10.44898v-52.244898h-104.489796v52.244898h-10.448979v-52.244898h-104.489796v52.244898h-10.44898v-52.244898h-104.489796zM276.897959 177.632653h-104.489796v104.489796h104.489796z m10.44898 0v104.489796h104.489796V177.632653z m219.428571 0h-104.489796v104.489796h104.489796z m10.44898 104.489796h104.489796V177.632653h-104.489796z m114.938775 0h104.489796V177.632653h-104.489796z m219.428572-104.489796h-104.489796v104.489796h104.489796z m-574.693878 114.938776h-104.489796v104.489795h104.489796z m114.938776 104.489795V292.571429h-104.489796v104.489795z m114.938775-104.489795h-104.489796v104.489795h104.489796z m10.44898 104.489795h104.489796V292.571429h-104.489796z m219.428571-104.489795h-104.489796v104.489795h104.489796z m114.938776 0h-104.489796v104.489795h104.489796z m-574.693878 114.938775h-104.489796v104.489796h104.489796z m114.938776 0h-104.489796v104.489796h104.489796z m114.938775 0h-104.489796v104.489796h104.489796z m10.44898 104.489796h104.489796V407.510204h-104.489796z m219.428571-104.489796h-104.489796v104.489796h104.489796z m10.44898 0v104.489796h104.489796V407.510204z m-574.693878 114.938776v104.489796h104.489796V522.44898z m114.938776 0v104.489796h104.489796V522.44898z m114.938775 0v104.489796h104.489796V522.44898z m114.938776 104.489796h104.489796V522.44898h-104.489796z m219.428571 0V522.44898h-104.489796v104.489796z m114.938776 0V522.44898h-104.489796v104.489796z m-574.693878 114.938775V637.387755h-104.489796v104.489796z m114.938776 0V637.387755h-104.489796v104.489796z m114.938775 0V637.387755h-104.489796v104.489796z m114.938776-104.489796h-104.489796v104.489796h104.489796z m114.938775 0h-104.489796v104.489796h104.489796z m10.44898 104.489796h104.489796V637.387755h-104.489796z m-470.204082 114.938776V752.326531h-104.489796v104.489796z m114.938776 0V752.326531h-104.489796v104.489796z m114.938775 0V752.326531h-104.489796v104.489796z m114.938776 0V752.326531h-104.489796v104.489796z m10.448979-104.489796v104.489796h104.489796V752.326531z m114.938776 0v104.489796h104.489796V752.326531z" fill="#314440" p-id="1680"></path><path d="M136.254694 540.839184c12.956735 22.256327 25.80898 33.436735 38.556735 33.436734 12.434286 0 29.152653 5.01551 50.155102 15.046531 21.315918 10.13551 31.973878 19.017143 31.973877 26.749388 0 0.626939 0 1.253878 0.10449 1.671836 0 1.044898 0.313469 2.089796 0.731429 3.030205 2.612245 6.060408 7.418776 8.150204 14.315102 6.373877 3.657143-1.044898 6.164898-3.030204 7.523265-6.164898 0.522449-1.044898 0.835918-2.612245 1.044898-4.702041 0.313469-1.985306 0.626939-5.955918 1.044898-11.598367 0.626939-7.209796 1.880816-23.405714 3.866122-48.692245 13.479184-173.97551 23.823673-287.660408 31.03347-341.054694 11.702857 68.127347 25.077551 229.877551 40.019591 485.146123l23.405715-0.522449c0-43.154286 4.388571-73.665306 13.061224-91.742041 6.269388-13.061224 14.942041-21.211429 25.80898-24.241633 13.792653-3.866122 32.182857-0.522449 55.170612 10.24 17.972245 9.508571 35.422041 5.01551 52.349388-13.270204 8.254694-8.881633 19.644082-26.540408 34.377143-52.767347 15.36-27.585306 27.167347-45.348571 35.213061-53.080816 9.508571-9.090612 18.912653-9.822041 28.316735-2.298776 14.733061 11.911837 31.660408 34.899592 50.88653 68.963266 15.777959 28.003265 28.630204 44.930612 38.661225 50.78204 19.226122 11.389388 40.019592 4.075102 62.484898-21.942857 12.747755-14.733061 22.883265-21.838367 30.51102-21.420408 4.597551 0.20898 12.852245 5.12 24.764082 14.628572 26.226939 21.211429 51.617959 31.764898 76.173061 31.764898 6.478367 0 11.702857-4.702041 11.702857-10.44898s-5.22449-10.44898-11.702857-10.44898c-18.599184 0-38.661224-8.777143-60.499592-26.331428-15.882449-12.852245-28.839184-19.539592-38.974694-20.062041-15.882449-0.835918-32.809796 8.986122-50.573061 29.570612-13.583673 15.673469-23.823673 21.420408-30.92898 17.240817-6.478367-3.761633-16.718367-18.076735-30.72-42.736327-20.48-36.362449-39.183673-61.33551-56.00653-75.023673-20.793469-16.822857-41.16898-15.673469-61.231021 3.552653-9.613061 9.195102-22.674286 28.525714-39.079183 57.991836-13.897143 24.868571-24.450612 41.16898-31.451429 48.796735-8.463673 9.195102-15.986939 12.016327-22.569796 8.463674l-0.313469-0.10449-0.20898-0.20898c-28.943673-13.479184-53.394286-17.449796-73.456326-11.807347-16.300408 4.597551-29.048163 15.15102-38.034286 31.660408-17.345306-269.165714-33.645714-412.316735-49.005714-429.453061l-8.254694-9.090612-9.195102 8.254694c-10.762449 9.613061-25.80898 139.389388-45.139592 389.642449-0.940408 12.120816-1.671837 22.151837-2.298776 30.093061-6.478367-4.702041-14.315102-9.299592-23.823673-13.792653-24.450612-11.702857-44.930612-17.554286-61.23102-17.554286-4.806531 0-12.747755-11.180408-23.823674-33.436735-2.716735-5.433469-4.597551-8.881633-5.642449-10.344489-1.044898-1.462857-2.194286-2.507755-3.448163-3.448164-5.433469-3.657143-10.553469-3.448163-15.56898 0.522449-2.821224 2.298776-4.284082 5.746939-4.284081 10.135511 0 6.687347-4.075102 12.538776-12.225306 17.345306-3.239184 1.880816-5.32898 5.12-5.32898 8.777143 0 5.746939 5.22449 10.44898 11.702857 10.448979 2.507755 0 4.806531-0.626939 6.687347-1.776326 5.433469-3.239184 9.822041-6.896327 13.374694-10.762449z" fill="#99EDDD" p-id="1681"></path></svg>